<svg xmlns="http://www.w3.org/2000/svg" width="30.037" height="26.751" viewBox="0 0 30.037 26.751">
  <path id="heart" d="M27.655,2.618A8.073,8.073,0,0,0,21.647,0a7.551,7.551,0,0,0-4.72,1.631,9.662,9.662,0,0,0-1.908,1.994,9.656,9.656,0,0,0-1.908-1.994A7.55,7.55,0,0,0,8.391,0,8.074,8.074,0,0,0,2.383,2.618,9.4,9.4,0,0,0,0,9.036,11.2,11.2,0,0,0,2.98,16.362a63.555,63.555,0,0,0,7.457,7.007c1.033.882,2.2,1.881,3.421,2.945a1.762,1.762,0,0,0,2.322,0c1.216-1.065,2.388-2.064,3.422-2.946a63.518,63.518,0,0,0,7.457-7.007,11.2,11.2,0,0,0,2.979-7.326,9.4,9.4,0,0,0-2.383-6.418Zm0,0" transform="translate(0)" fill="#7b7b8b"/>
</svg>
