<svg xmlns="http://www.w3.org/2000/svg" width="23.939" height="25.091" viewBox="0 0 23.939 25.091">
  <path id="Icon_ionic-ios-search" data-name="Icon ionic-ios-search" d="M28.158,27.768,21.5,20.726a10.278,10.278,0,0,0,2.088-6.239,9.775,9.775,0,0,0-9.544-9.995,9.781,9.781,0,0,0-9.544,10,9.775,9.775,0,0,0,9.544,9.995,9.247,9.247,0,0,0,6.016-2.234l6.614,7a1,1,0,0,0,.742.333.986.986,0,0,0,.7-.294A1.118,1.118,0,0,0,28.158,27.768ZM14.044,22.34a7.278,7.278,0,0,1-5.3-2.3,8.106,8.106,0,0,1,0-11.092,7.255,7.255,0,0,1,10.6,0,8.106,8.106,0,0,1,0,11.092A7.278,7.278,0,0,1,14.044,22.34Z" transform="translate(-4.5 -4.493)" fill="#fff"/>
</svg>
