<svg xmlns="http://www.w3.org/2000/svg" width="25.026" height="26.091" viewBox="0 0 25.026 26.091">
  <path id="Icon_ionic-ios-search" data-name="Icon ionic-ios-search" d="M28.158,27.768,21.5,20.726a10.278,10.278,0,0,0,2.088-6.239,9.775,9.775,0,0,0-9.544-9.995,9.781,9.781,0,0,0-9.544,10,9.775,9.775,0,0,0,9.544,9.995,9.247,9.247,0,0,0,6.016-2.234l6.614,7a1,1,0,0,0,.742.333.986.986,0,0,0,.7-.294A1.118,1.118,0,0,0,28.158,27.768ZM10.266,17c-2,0,2.582,3.938,1.166,2.455s4.1-1.393,4.1-3.483-8.2-5.544-6.783-7.021S13.527,22.34,15.528,22.34s2.4-14.875,3.815-13.392c1.343,1.407-5.38,3.258-5.3,5.54A18.218,18.218,0,0,1,16.249,17c0,2.1,4.509,1.568,3.094,3.044l-2.285-5.322V20.04C16.158,20.627,11.668,17,10.266,17Z" transform="translate(-4 -3.993)" fill="#53219f" stroke="#53219f" stroke-width="1"/>
</svg>
