<svg xmlns="http://www.w3.org/2000/svg" width="27" height="23" viewBox="0 0 27 23">
  <path id="Icon_ionic-ios-heart-empty" data-name="Icon ionic-ios-heart-empty" d="M23.106,3.937h-.065a7.654,7.654,0,0,0-6.166,2.99,7.654,7.654,0,0,0-6.166-2.99h-.065c-4.018.035-7.269,2.927-7.269,6.5a13.017,13.017,0,0,0,3.1,7.63c3.907,4.732,10.4,8.872,10.4,8.872s6.49-4.14,10.4-8.872a13.017,13.017,0,0,0,3.1-7.63C30.375,6.864,27.123,3.972,23.106,3.937Zm2.7,13.179a47.584,47.584,0,0,1-8.931,7.8,47.649,47.649,0,0,1-8.931-7.8,11.539,11.539,0,0,1-2.752-6.676A4.6,4.6,0,0,1,6.789,7a5.851,5.851,0,0,1,3.868-1.443h.058a6,6,0,0,1,2.668.621,5.457,5.457,0,0,1,1.973,1.639,1.958,1.958,0,0,0,3.05,0A5.511,5.511,0,0,1,20.38,6.174a6,6,0,0,1,2.668-.621h.058A5.863,5.863,0,0,1,26.974,7a4.585,4.585,0,0,1,1.6,3.438A11.687,11.687,0,0,1,25.806,17.116Z" transform="translate(-3.375 -3.937)" fill="#fff"/>
</svg>
