<svg xmlns="http://www.w3.org/2000/svg" width="18.77" height="22.32" viewBox="0 0 18.77 22.32">
  <path id="Icon_awesome-music" data-name="Icon awesome-music" d="M18.77,1.4C18.77.449,18-.218,17.245.065L5.514,4.185a1.39,1.39,0,0,0-.821,1.33v11.4a4.31,4.31,0,0,0-1.173-.171C1.576,16.739,0,17.988,0,19.529s1.576,2.79,3.519,2.79,3.519-1.249,3.519-2.79V9.342l9.385-3.27V14.12a4.31,4.31,0,0,0-1.173-.171c-1.944,0-3.519,1.249-3.519,2.79s1.576,2.79,3.519,2.79,3.519-1.249,3.519-2.79V1.4Z" transform="translate(0 0.001)" fill="#fff"/>
</svg>
