<svg xmlns="http://www.w3.org/2000/svg" width="24.015" height="21.388" viewBox="0 0 24.015 21.388">
  <path id="heart" d="M22.11,2.093A6.454,6.454,0,0,0,17.307,0a6.037,6.037,0,0,0-3.773,1.3A7.724,7.724,0,0,0,12.008,2.9,7.72,7.72,0,0,0,10.482,1.3,6.036,6.036,0,0,0,6.709,0a6.455,6.455,0,0,0-4.8,2.093A7.519,7.519,0,0,0,0,7.225a8.953,8.953,0,0,0,2.382,5.857,50.812,50.812,0,0,0,5.962,5.6c.826.7,1.763,1.5,2.735,2.355a1.409,1.409,0,0,0,1.856,0c.972-.851,1.909-1.65,2.736-2.356a50.783,50.783,0,0,0,5.962-5.6,8.952,8.952,0,0,0,2.382-5.857A7.518,7.518,0,0,0,22.11,2.093Zm0,0" transform="translate(0)" fill="#fe5ab2"/>
</svg>
