<svg xmlns="http://www.w3.org/2000/svg" width="18.826" height="18.596" viewBox="0 0 18.826 18.596">
  <path id="Icon_ionic-ios-search" data-name="Icon ionic-ios-search" d="M23.105,21.743l-5.236-5.219A7.336,7.336,0,0,0,19.512,11.9a7.506,7.506,0,1,0-7.506,7.412,7.538,7.538,0,0,0,4.731-1.656l5.2,5.185a.813.813,0,0,0,1.137.029A.794.794,0,0,0,23.105,21.743Zm-11.1-4.023a5.893,5.893,0,0,1-4.167-1.7,5.758,5.758,0,0,1,0-8.221,5.947,5.947,0,0,1,8.334,0,5.758,5.758,0,0,1,0,8.221A5.893,5.893,0,0,1,12.006,17.719Z" transform="translate(-4.5 -4.493)" fill="#fe5ab2"/>
</svg>
