<svg xmlns="http://www.w3.org/2000/svg" width="16" height="27" viewBox="0 0 16 27">
  <g id="Group_12" data-name="Group 12" transform="translate(-2466 -93)">
    <path id="More-icon" d="M3043-5347a2,2,0,0,1,2-2,2,2,0,0,1,2,2,2,2,0,0,1-2,2A2,2,0,0,1,3043-5347Zm-7,0a2,2,0,0,1,2-2,2,2,0,0,1,2,2,2,2,0,0,1-2,2A2,2,0,0,1,3036-5347Zm-7,0a2,2,0,0,1,2-2,2,2,0,0,1,2,2,2,2,0,0,1-2,2A2,2,0,0,1,3029-5347Z" transform="matrix(0.035, 0.999, -0.999, 0.035, -2975.768, -2743.364)" fill="#fff"/>
    <rect id="Rectangle_50" data-name="Rectangle 50" width="16" height="27" transform="translate(2466 93)" fill="none"/>
  </g>
</svg>
